<mxfile host="app.diagrams.net" modified="2021-12-26T10:23:09.910Z" agent="5.0 (Macintosh; Intel Mac OS X 10_15_7) AppleWebKit/537.36 (KHTML, like Gecko) Chrome/96.0.4664.110 Safari/537.36" etag="8JlFw0X08Ga78aIPK0h9" version="16.1.0" type="github">
  <diagram id="f56XNH6hdNxCWTx_-B1Z" name="Page-1">
    <mxGraphModel dx="2066" dy="1065" grid="1" gridSize="10" guides="1" tooltips="1" connect="1" arrows="1" fold="1" page="1" pageScale="1" pageWidth="827" pageHeight="1169" math="0" shadow="0">
      <root>
        <mxCell id="0" />
        <mxCell id="1" parent="0" />
        <mxCell id="Ip0iTN4H_wWwPfXTiBKb-4" value="2021 年度&lt;br&gt;工作总结" style="ellipse;whiteSpace=wrap;html=1;aspect=fixed;fillColor=#fff2cc;strokeColor=#d6b656;fontSize=32;fontColor=#7EA6E0;" vertex="1" parent="1">
          <mxGeometry x="260" y="260" width="290" height="290" as="geometry" />
        </mxCell>
        <mxCell id="Ip0iTN4H_wWwPfXTiBKb-9" value="猫头鹰" style="ellipse;whiteSpace=wrap;html=1;aspect=fixed;fillColor=#fff2cc;strokeColor=#d6b656;fontSize=23;fontColor=#7EA6E0;" vertex="1" parent="1">
          <mxGeometry x="120" y="410" width="110" height="110" as="geometry" />
        </mxCell>
        <mxCell id="Ip0iTN4H_wWwPfXTiBKb-12" value="大黄蜂" style="ellipse;whiteSpace=wrap;html=1;aspect=fixed;fillColor=#fff2cc;strokeColor=#d6b656;fontSize=23;fontColor=#7EA6E0;" vertex="1" parent="1">
          <mxGeometry x="150" y="190" width="130" height="130" as="geometry" />
        </mxCell>
        <mxCell id="Ip0iTN4H_wWwPfXTiBKb-13" value="阳光诚信联盟" style="ellipse;whiteSpace=wrap;html=1;aspect=fixed;fillColor=#fff2cc;strokeColor=#d6b656;fontSize=23;fontColor=#7EA6E0;" vertex="1" parent="1">
          <mxGeometry x="470" y="570" width="90" height="90" as="geometry" />
        </mxCell>
        <mxCell id="Ip0iTN4H_wWwPfXTiBKb-14" value="司法协作平台" style="ellipse;whiteSpace=wrap;html=1;aspect=fixed;fillColor=#fff2cc;strokeColor=#d6b656;fontSize=23;fontColor=#7EA6E0;" vertex="1" parent="1">
          <mxGeometry x="590" y="340" width="100" height="100" as="geometry" />
        </mxCell>
        <mxCell id="Ip0iTN4H_wWwPfXTiBKb-15" value="大调查" style="ellipse;whiteSpace=wrap;html=1;aspect=fixed;fillColor=#fff2cc;strokeColor=#d6b656;fontSize=23;fontColor=#7EA6E0;" vertex="1" parent="1">
          <mxGeometry x="450" y="100" width="160" height="160" as="geometry" />
        </mxCell>
        <mxCell id="Ip0iTN4H_wWwPfXTiBKb-16" value="猎豹" style="ellipse;whiteSpace=wrap;html=1;aspect=fixed;fillColor=#fff2cc;strokeColor=#d6b656;fontSize=23;fontColor=#7EA6E0;" vertex="1" parent="1">
          <mxGeometry x="250" y="560" width="110" height="110" as="geometry" />
        </mxCell>
      </root>
    </mxGraphModel>
  </diagram>
</mxfile>
